<?xml version="1.0" encoding="UTF-8"?>
<svg width="61" height="32" viewBox="0 0 61 32" fill="none" xmlns="http://www.w3.org/2000/svg">
<path d="M12.4068 27.4286V32H12.0845C10.2799 32 9.1198 31.5152 7.86301 30.3723L1.67572 24.7619C0.451156 23.6537 0 22.6147 0 20.987V11.013C0 9.38528 0.418931 8.34632 1.67572 7.23809L7.86301 1.62771C9.08758 0.519481 10.2477 0 12.0845 0H12.4068V4.57143H7.54075C5.99393 4.57143 4.67269 5.88745 4.67269 7.54978V24.4156C4.67269 26.0779 5.99393 27.3939 7.54075 27.3939H12.4068V27.4286Z" fill="white"/>
<path d="M42.7756 15.1355L32.0231 5.16211H26.9707L37.0107 14.4953H16.542V18.5386H37.2374L27.0031 27.8718H32.0879L42.7756 18.1679C43.2291 17.7973 43.4234 17.2919 43.4234 16.6854C43.4234 16.0789 43.1967 15.5398 42.7756 15.1355Z" fill="white"/>
<path d="M47.5593 4.57143V1.90735e-06H47.9084C49.8634 1.90735e-06 51.1202 0.484848 52.4817 1.6277L59.1846 7.23809C60.5112 8.34632 61 9.38528 61 11.013V20.987C61 22.6147 60.5462 23.6537 59.1846 24.7619L52.4817 30.3723C51.1551 31.4805 49.8983 32 47.9084 32H47.5593V27.4286H52.8308C54.5066 27.4286 55.9379 26.1126 55.9379 24.4502V7.58442C55.9379 5.92208 54.5066 4.60606 52.8308 4.60606H47.5593V4.57143Z" fill="white"/>
</svg>
